<svg height="512pt" viewBox="0 -78 512.00028 512" width="512pt" xmlns="http://www.w3.org/2000/svg"><path d="m347.273438 301.164062h-11.46875v-33.0625c0-4.214843-3.417969-7.632812-7.632813-7.632812s-7.632813 3.417969-7.632813 7.632812v33.0625h-136.347656v-33.0625c0-4.214843-3.417968-7.632812-7.632812-7.632812s-7.632813 3.417969-7.632813 7.632812v33.0625h-11.703125c-4.214844 0-7.628906 3.414063-7.628906 7.628907 0 4.21875 3.414062 7.632812 7.628906 7.632812h190.050782c4.214843 0 7.632812-3.414062 7.632812-7.632812 0-4.214844-3.417969-7.628907-7.632812-7.628907zm0 0" fill="#ff6930"/><path d="m59.453125 193.136719 60.046875-173.78125 14.425781 4.984375-60.046875 173.78125zm0 0" fill="#fbc700"/><path d="m15.316406 228.40625h30.472656v-31.542969h-30.472656c-8.460937 0-15.316406 6.855469-15.316406 15.316407v.914062c0 8.457031 6.855469 15.3125 15.316406 15.3125zm0 0" fill="#ffd500"/><path d="m15.773438 196.863281c-.355469 0-.699219.03125-1.046876.054688v31.4375c.347657.023437.691407.050781 1.046876.050781h30.015624v-31.542969zm0 0" fill="#fbc700"/><g fill="#ff6930"><path d="m259.652344 176.949219c-4.214844 0-7.632813-3.414063-7.632813-7.628907v-125.089843c0-4.214844 3.417969-7.632813 7.632813-7.632813s7.628906 3.417969 7.628906 7.632813v125.089843c0 4.214844-3.417969 7.628907-7.628906 7.628907zm0 0"/><path d="m380.910156 176.949219c-4.214844 0-7.632812-3.414063-7.632812-7.628907v-125.089843c0-4.214844 3.417968-7.632813 7.632812-7.632813s7.628906 3.417969 7.628906 7.632813v125.089843c0 4.214844-3.417968 7.628907-7.628906 7.628907zm0 0"/><path d="m138.394531 209.582031c-4.214843 0-7.632812-3.414062-7.632812-7.632812v-157.71875c0-4.214844 3.417969-7.632813 7.632812-7.632813 4.214844 0 7.628907 3.417969 7.628907 7.632813v157.71875c0 4.21875-3.414063 7.632812-7.628907 7.632812zm0 0"/></g><path d="m218.054688 138.539062-39.972657-14.785156c-3.953125-1.464844-8.34375.558594-9.804687 4.511719-1.460938 3.953125.558594 8.34375 4.507812 9.804687l13.457032 4.976563-36.464844 105.882813c-1.371094 3.984374.746094 8.328124 4.734375 9.699218.820312.285156 1.660156.417969 2.484375.417969 3.164062 0 6.125-1.984375 7.214844-5.148437l36.351562-105.558594 12.195312 4.511718c.875.324219 1.769532.476563 2.648438.476563 3.101562 0 6.019531-1.90625 7.15625-4.984375 1.464844-3.953125-.554688-8.34375-4.507812-9.804688zm0 0" fill="#5a5a5a"/><path d="m480.148438 121.988281c-.410157 0-.824219-.03125-1.238282-.101562-4.160156-.679688-6.980468-4.601563-6.304687-8.761719l16.609375-101.667969c.679687-4.160156 4.605468-6.972656 8.761718-6.300781 4.160157.679688 6.980469 4.601562 6.300782 8.761719l-16.605469 101.667969c-.613281 3.742187-3.851563 6.402343-7.523437 6.402343zm0 0" fill="#ff6930"/><path d="m123.644531 55.753906-8.152343-47.753906c-.714844-4.183594 2.507812-8 6.75-8h382.910156c4.222656 0 7.4375 3.785156 6.757812 7.949219l-7.800781 47.753906c-.542969 3.3125-3.402344 5.742187-6.757813 5.742187h-366.957031c-3.335937 0-6.1875-2.402343-6.75-5.691406zm0 0" fill="#5a5a5a"/><path d="m505.152344 0h-45.085938l-6.15625 37.667969c-.539062 3.308593-3.398437 5.742187-6.753906 5.742187h-325.617188l2.105469 12.339844c.5625 3.289062 3.414063 5.695312 6.75 5.695312h366.957031c3.355469 0 6.214844-2.433593 6.757813-5.742187l7.796875-47.753906c.683594-4.164063-2.535156-7.949219-6.753906-7.949219zm0 0" fill="#444"/><path d="m462.265625 86.96875c-21.023437 0-38.980469 15.167969-42.492187 35.898438l-2.730469 16.113281c-.785157 4.632812-4.800781 8.023437-9.5 8.023437h-162.367188c-5.621093 0-10.175781 4.554688-10.175781 10.175782v81.402343h-77.773438c-3.339843 0-6.046874-2.707031-6.046874-6.046875v-40.75c0-5.621094-4.558594-10.175781-10.175782-10.175781h-103.355468c-5.621094 0-10.175782 4.554687-10.175782 10.175781v74.289063c0 5.621093 4.558594 10.175781 10.175782 10.175781h412.574218c6.191406 0 11.472656-4.488281 12.472656-10.601562l29.183594-178.679688zm0 0" fill="#ff6930"/><path d="m462.265625 86.96875c-4.335937 0-8.539063.65625-12.519531 1.863281l-25.671875 157.179688c-1 6.113281-6.277344 10.601562-12.472657 10.601562h-384.128906v9.460938c0 5.621093 4.558594 10.175781 10.175782 10.175781h412.574218c6.191406 0 11.472656-4.488281 12.472656-10.601562l29.183594-178.679688zm0 0" fill="#ff5426"/><path d="m491.878906 297.339844c0 32.738281-26.539062 59.277344-59.277344 59.277344-32.738281 0-59.277343-26.539063-59.277343-59.277344 0-32.738282 26.539062-59.277344 59.277343-59.277344 32.738282 0 59.277344 26.539062 59.277344 59.277344zm0 0" fill="#e7e7e7"/><path d="m122.628906 297.339844c0 32.738281-26.539062 59.277344-59.277344 59.277344-32.738281 0-59.277343-26.539063-59.277343-59.277344 0-32.738282 26.539062-59.277344 59.277343-59.277344 32.738282 0 59.277344 26.539062 59.277344 59.277344zm0 0" fill="#e7e7e7"/><path d="m455.609375 242.695312c8.9375 10.378907 14.351563 23.875 14.351563 38.644532 0 32.738281-26.539063 59.277344-59.277344 59.277344-8.160156 0-15.933594-1.648438-23.007813-4.632813 10.871094 12.625 26.957031 20.632813 44.925781 20.632813 32.738282 0 59.277344-26.539063 59.277344-59.277344 0-24.578125-14.957031-45.660156-36.269531-54.644532zm0 0" fill="#cecece"/><path d="m86.359375 242.695312c8.9375 10.378907 14.351563 23.875 14.351563 38.644532 0 32.738281-26.539063 59.277344-59.277344 59.277344-8.160156 0-15.9375-1.648438-23.011719-4.632813 10.871094 12.625 26.960937 20.632813 44.929687 20.632813 32.738282 0 59.277344-26.539063 59.277344-59.277344 0-24.578125-14.960937-45.660156-36.269531-54.644532zm0 0" fill="#cecece"/><path d="m432.601562 257.105469c-22.183593 0-40.234374 18.050781-40.234374 40.234375 0 22.1875 18.050781 40.234375 40.234374 40.234375 22.183594 0 40.234376-18.046875 40.234376-40.234375 0-22.183594-18.050782-40.234375-40.234376-40.234375zm10.792969 40.433593 11.472657-11.476562c1.726562 3.390625 2.703124 7.222656 2.703124 11.28125 0 4.160156-1.027343 8.082031-2.835937 11.535156zm.746094-22.332031-11.539063 11.535157-11.539062-11.535157c3.457031-1.808593 7.378906-2.839843 11.539062-2.839843 4.160157 0 8.085938 1.03125 11.539063 2.839843zm-33.671875 33.671875c-1.808594-3.453125-2.835938-7.375-2.835938-11.535156 0-4.058594.976563-7.890625 2.703126-11.28125l11.472656 11.476562zm10.855469 10.730469 11.277343-11.277344 11.277344 11.277344c-3.390625 1.722656-7.21875 2.703125-11.277344 2.703125-4.054687 0-7.886718-.980469-11.277343-2.703125zm0 0" fill="#ff6930"/><path d="m63.351562 257.105469c-22.1875 0-40.234374 18.050781-40.234374 40.234375 0 22.1875 18.046874 40.234375 40.234374 40.234375 22.183594 0 40.234376-18.046875 40.234376-40.234375 0-22.183594-18.050782-40.234375-40.234376-40.234375zm10.324219 40.433593 11.785157-11.785156c1.820312 3.464844 2.859374 7.40625 2.859374 11.589844 0 4.285156-1.085937 8.320312-2.996093 11.847656zm.902344-22.492187-11.695313 11.695313-11.378906-11.378907c3.527344-1.90625 7.5625-2.996093 11.847656-2.996093 4.035157.003906 7.847657.972656 11.226563 2.679687zm-33.519531 33.519531c-1.710938-3.375-2.679688-7.1875-2.679688-11.226562 0-3.933594.917969-7.652344 2.546875-10.964844l11.164063 11.164062zm10.703125 10.882813 11.121093-11.117188 11.4375 11.4375c-3.3125 1.625-7.035156 2.542969-10.96875 2.542969-4.179687 0-8.125-1.039062-11.589843-2.863281zm0 0" fill="#ff6930"/><path d="m338.824219 245.5625h-28.589844c-19.519531 0-35.398437-15.878906-35.398437-35.398438v-63.199218h15v63.199218c0 11.25 9.148437 20.398438 20.398437 20.398438h28.589844c11.25 0 20.402343-9.148438 20.402343-20.398438v-63.199218h15v63.199218c0 19.519532-15.878906 35.398438-35.402343 35.398438zm0 0" fill="#ff5426"/><path d="m344.332031 195.542969h-10c-4.140625 0-7.5-3.359375-7.5-7.5 0-4.144531 3.359375-7.5 7.5-7.5h10c4.144531 0 7.5 3.355469 7.5 7.5 0 4.140625-3.355469 7.5-7.5 7.5zm0 0" fill="#fac70f"/></svg>